<svg width="108" height="87" viewBox="0 0 108 87" fill="none" xmlns="http://www.w3.org/2000/svg">
<g clip-path="url(#clip0_2025_2770)">
<path d="M75.7041 56.5537L77.6732 57.6564C78.9807 53.1511 73.9555 46.4404 69.2455 46.4404C69.2455 46.4404 55.2885 58.4756 51.3345 60.9803C47.3806 63.485 40.024 68.2896 32.1003 69.2663C24.1767 70.2429 21.2309 71.1251 20.2069 74.0551V79.6159C20.2069 80.0884 20.459 80.5295 20.8843 80.7501C22.9795 81.8843 35.3297 84.326 42.5287 84.9246C49.7277 85.5074 104.201 84.0739 104.201 84.0739C104.815 84.0739 105.335 83.6171 105.445 83.0027C105.981 79.9939 107.273 70.9203 105.067 62.6028C104.5 60.4604 103.697 58.3653 102.594 56.4435C102.248 55.8291 101.413 55.6716 100.846 56.0969C100.121 56.6483 99.034 57.4044 97.7423 58.192C92.6384 61.2323 86.4003 61.6892 80.8868 59.4523L72.9946 55.0415C71.5926 54.2696 69.8913 54.3011 68.5208 55.136L51.1297 65.7849C48.31 67.7225 44.6553 67.9745 41.5835 66.4623L41.5048 66.415" stroke="black" stroke-width="1.5" stroke-miterlimit="10"/>
<path d="M106.265 75.0796C106.265 75.0796 70.569 79.3329 49.5705 78.2932C28.572 77.2693 20.1916 74.04 20.1916 74.04" stroke="black" stroke-width="1.5" stroke-miterlimit="10"/>
<path d="M104.895 61.9893C104.895 61.9893 98.7668 63.9741 96.7189 69.1095C94.6553 74.245 95.2067 76.2298 95.2067 76.2298" stroke="black" stroke-width="1.5" stroke-miterlimit="10"/>
<path d="M38.4491 35.8544L65.8275 23.8822L69.6554 19.6762C70.8369 18.3845 71.1047 16.5257 70.3328 14.9504L69.8917 14.0367C67.9699 10.067 64.7563 6.8692 60.7866 4.93161L55.0053 2.12761L60.6133 1.38722C69.6712 0.190009 78.4928 4.82134 82.62 12.9655L88.7951 25.1267C89.0471 25.6308 89.0629 26.2294 88.7951 26.7335C87.6136 29.1594 88.8109 32.0737 91.3628 32.9559L92.497 33.3497L93.7572 36.39C94.1983 37.4612 93.7257 38.7056 92.686 39.194L85.8336 42.4391C84.5418 43.0534 82.9823 42.5966 82.2262 41.3679L80.5249 38.5796L80.8084 37.6029C81.5961 34.862 80.2098 31.9477 77.5949 30.8292C77.4531 30.7662 77.2956 30.7505 77.138 30.7662L68.9938 31.6956L42.025 44.2191" stroke="black" stroke-width="1.5" stroke-linecap="round" stroke-linejoin="round"/>
<path d="M66.2057 23.457L69.6083 31.5382" stroke="black" stroke-width="1.5" stroke-linecap="round" stroke-linejoin="round"/>
<path d="M36.0492 35.907L2.41992 51.1549C1.69095 51.4854 1.36792 52.3443 1.69844 53.0733L5.96576 62.4849C6.29628 63.2138 7.15519 63.5368 7.88416 63.2063L41.5135 47.9585C42.2424 47.6279 42.5654 46.7691 42.2349 46.0401L37.9676 36.6285C37.6371 35.8995 36.7782 35.5765 36.0492 35.907Z" stroke="black" stroke-width="1.5" stroke-linecap="round" stroke-linejoin="round"/>
</g>
<defs>
<clipPath id="clip0_2025_2770">
<rect width="107" height="86" fill="white" transform="translate(0.100006 0.200195)"/>
</clipPath>
</defs>
</svg>
